<mxfile host="65bd71144e">
    <diagram name="Enhanced Slack Image to S3 Upload Workflow" id="enhanced-workflow-diagram">
        <mxGraphModel dx="845" dy="801" grid="1" gridSize="10" guides="1" tooltips="1" connect="1" arrows="1" fold="1" page="1" pageScale="1" pageWidth="1400" pageHeight="1000" background="#ffffff" math="0" shadow="0">
            <root>
                <mxCell id="0"/>
                <mxCell id="1" parent="0"/>
                <mxCell id="title" value="Enhanced Slack Image to S3 Upload Workflow" style="text;html=1;strokeColor=none;fillColor=none;align=center;verticalAlign=middle;whiteSpace=wrap;rounded=0;fontSize=20;fontStyle=1;fontColor=#000000;" parent="1" vertex="1">
                    <mxGeometry x="400" y="20" width="600" height="40" as="geometry"/>
                </mxCell>
                <mxCell id="slack-trigger" value="&lt;b&gt;Slack Trigger&lt;/b&gt;&lt;br&gt;app_mention&lt;br&gt;Channel: C0790JJ923E&lt;br&gt;回帰pj_program" style="rounded=1;whiteSpace=wrap;html=1;fillColor=#ffffff;strokeColor=#000000;fontSize=12;fontColor=#000000;" parent="1" vertex="1">
                    <mxGeometry x="40" y="100" width="160" height="80" as="geometry"/>
                </mxCell>
                <mxCell id="check-image" value="&lt;b&gt;Check if Image&lt;/b&gt;&lt;br&gt;MIME Type: image/&lt;br&gt;条件判定" style="rounded=1;whiteSpace=wrap;html=1;fillColor=#ffffff;strokeColor=#000000;fontSize=12;fontColor=#000000;" parent="1" vertex="1">
                    <mxGeometry x="280" y="100" width="160" height="80" as="geometry"/>
                </mxCell>
                <mxCell id="download-image" value="&lt;b&gt;Download Image&lt;/b&gt;&lt;br&gt;from Slack&lt;br&gt;HTTP Request&lt;br&gt;url_private" style="rounded=1;whiteSpace=wrap;html=1;fillColor=#ffffff;strokeColor=#000000;fontSize=12;fontColor=#000000;" parent="1" vertex="1">
                    <mxGeometry x="520" y="100" width="160" height="80" as="geometry"/>
                </mxCell>
                <mxCell id="aspect-ratio-analysis" value="&lt;b&gt;Aspect Ratio Analysis&lt;/b&gt;&lt;br&gt;Python Code Node&lt;br&gt;画像サイズ計算&lt;br&gt;縦長判定" style="rounded=1;whiteSpace=wrap;html=1;fillColor=#ffffff;strokeColor=#000000;fontSize=12;fontColor=#000000;" parent="1" vertex="1">
                    <mxGeometry x="760" y="100" width="160" height="80" as="geometry"/>
                </mxCell>
                <mxCell id="aspect-ratio-check" value="&lt;b&gt;Aspect Ratio Check&lt;/b&gt;&lt;br&gt;Switch Node&lt;br&gt;縦長判定&lt;br&gt;is_tall判定" style="rounded=1;whiteSpace=wrap;html=1;fillColor=#ffffff;strokeColor=#000000;fontSize=12;fontColor=#000000;" parent="1" vertex="1">
                    <mxGeometry x="1000" y="100" width="160" height="80" as="geometry"/>
                </mxCell>
                <mxCell id="upload-s3-tall" value="&lt;b&gt;Upload to S3&lt;/b&gt;&lt;br&gt;縦長画像&lt;br&gt;Bucket: tokushima-return&lt;br&gt;Path: r7/BroadCast/" style="rounded=1;whiteSpace=wrap;html=1;fillColor=#ffffff;strokeColor=#000000;fontSize=12;fontColor=#000000;" parent="1" vertex="1">
                    <mxGeometry x="1240" y="60" width="160" height="80" as="geometry"/>
                </mxCell>
                <mxCell id="upload-s3-original" value="&lt;b&gt;Upload Original&lt;/b&gt;&lt;br&gt;to S3&lt;br&gt;横長画像&lt;br&gt;元画像保存" style="rounded=1;whiteSpace=wrap;html=1;fillColor=#ffffff;strokeColor=#000000;fontSize=12;fontColor=#000000;" parent="1" vertex="1">
                    <mxGeometry x="1240" y="180" width="160" height="80" as="geometry"/>
                </mxCell>
                <mxCell id="lambda-invoke" value="&lt;b&gt;Lambda Invoke&lt;/b&gt;&lt;br&gt;画像処理関数&lt;br&gt;AWS Lambda&lt;br&gt;画像変換処理&lt;br&gt;+ S3保存" style="rounded=1;whiteSpace=wrap;html=1;fillColor=#ffffff;strokeColor=#000000;fontSize=12;fontColor=#000000;" parent="1" vertex="1">
                    <mxGeometry x="1480" y="180" width="160" height="80" as="geometry"/>
                </mxCell>
                <mxCell id="success-message-tall" value="&lt;b&gt;Send Success&lt;/b&gt;&lt;br&gt;Message (縦長)&lt;br&gt;✅ 縦長画像保存&lt;br&gt;ファイル情報" style="rounded=1;whiteSpace=wrap;html=1;fillColor=#ffffff;strokeColor=#000000;fontSize=12;fontColor=#000000;" parent="1" vertex="1">
                    <mxGeometry x="1480" y="60" width="160" height="80" as="geometry"/>
                </mxCell>
                <mxCell id="success-message-wide" value="&lt;b&gt;Send Success&lt;/b&gt;&lt;br&gt;Message (横長)&lt;br&gt;✅ 処理済み画像保存&lt;br&gt;元画像+処理済み" style="rounded=1;whiteSpace=wrap;html=1;fillColor=#ffffff;strokeColor=#000000;fontSize=12;fontColor=#000000;" parent="1" vertex="1">
                    <mxGeometry x="1720" y="180" width="160" height="80" as="geometry"/>
                </mxCell>
                <mxCell id="error-message" value="&lt;b&gt;Send Error&lt;/b&gt;&lt;br&gt;Message&lt;br&gt;🚨 エラー通知&lt;br&gt;エラー詳細" style="rounded=1;whiteSpace=wrap;html=1;fillColor=#ffffff;strokeColor=#000000;fontSize=12;fontColor=#000000;" parent="1" vertex="1">
                    <mxGeometry x="1240" y="300" width="160" height="80" as="geometry"/>
                </mxCell>
                <mxCell id="debug-message" value="&lt;b&gt;Send Debug&lt;/b&gt;&lt;br&gt;Message&lt;br&gt;❌ 画像なし&lt;br&gt;デバッグ情報" style="rounded=1;whiteSpace=wrap;html=1;fillColor=#ffffff;strokeColor=#000000;fontSize=12;fontColor=#000000;" parent="1" vertex="1">
                    <mxGeometry x="520" y="220" width="160" height="80" as="geometry"/>
                </mxCell>
                <mxCell id="conn1" value="" style="endArrow=classic;html=1;rounded=0;strokeWidth=2;strokeColor=#000000;fontColor=#000000;" parent="1" source="slack-trigger" target="check-image" edge="1">
                    <mxGeometry width="50" height="50" relative="1" as="geometry">
                        <mxPoint x="200" y="140" as="sourcePoint"/>
                        <mxPoint x="280" y="140" as="targetPoint"/>
                    </mxGeometry>
                </mxCell>
                <mxCell id="conn2" value="画像の場合" style="endArrow=classic;html=1;rounded=0;strokeWidth=2;strokeColor=#000000;fontColor=#000000;labelBackgroundColor=#ffffff;labelBorderColor=#000000;" parent="1" source="check-image" target="download-image" edge="1">
                    <mxGeometry width="50" height="50" relative="1" as="geometry">
                        <mxPoint x="440" y="140" as="sourcePoint"/>
                        <mxPoint x="520" y="140" as="targetPoint"/>
                    </mxGeometry>
                </mxCell>
                <mxCell id="conn3" value="画像でない場合" style="endArrow=classic;html=1;rounded=0;strokeWidth=2;strokeColor=#000000;fontColor=#000000;labelBackgroundColor=#ffffff;labelBorderColor=#000000;" parent="1" source="check-image" target="debug-message" edge="1">
                    <mxGeometry width="50" height="50" relative="1" as="geometry">
                        <mxPoint x="360" y="180" as="sourcePoint"/>
                        <mxPoint x="520" y="220" as="targetPoint"/>
                    </mxGeometry>
                </mxCell>
                <mxCell id="conn4" value="" style="endArrow=classic;html=1;rounded=0;strokeWidth=2;strokeColor=#000000;fontColor=#000000;" parent="1" source="download-image" target="aspect-ratio-analysis" edge="1">
                    <mxGeometry width="50" height="50" relative="1" as="geometry">
                        <mxPoint x="680" y="140" as="sourcePoint"/>
                        <mxPoint x="760" y="140" as="targetPoint"/>
                    </mxGeometry>
                </mxCell>
                <mxCell id="conn5" value="" style="endArrow=classic;html=1;rounded=0;strokeWidth=2;strokeColor=#000000;fontColor=#000000;" parent="1" source="aspect-ratio-analysis" target="aspect-ratio-check" edge="1">
                    <mxGeometry width="50" height="50" relative="1" as="geometry">
                        <mxPoint x="920" y="140" as="sourcePoint"/>
                        <mxPoint x="1000" y="140" as="targetPoint"/>
                    </mxGeometry>
                </mxCell>
                <mxCell id="conn6" value="縦長の場合" style="endArrow=classic;html=1;rounded=0;strokeWidth=2;strokeColor=#000000;fontColor=#000000;labelBackgroundColor=#ffffff;labelBorderColor=#000000;" parent="1" source="aspect-ratio-check" target="upload-s3-tall" edge="1">
                    <mxGeometry width="50" height="50" relative="1" as="geometry">
                        <mxPoint x="1160" y="100" as="sourcePoint"/>
                        <mxPoint x="1240" y="100" as="targetPoint"/>
                    </mxGeometry>
                </mxCell>
                <mxCell id="conn7" value="横長の場合" style="endArrow=classic;html=1;rounded=0;strokeWidth=2;strokeColor=#000000;fontColor=#000000;labelBackgroundColor=#ffffff;labelBorderColor=#000000;" parent="1" source="aspect-ratio-check" target="upload-s3-original" edge="1">
                    <mxGeometry width="50" height="50" relative="1" as="geometry">
                        <mxPoint x="1160" y="180" as="sourcePoint"/>
                        <mxPoint x="1240" y="220" as="targetPoint"/>
                    </mxGeometry>
                </mxCell>
                <mxCell id="conn8" value="" style="endArrow=classic;html=1;rounded=0;strokeWidth=2;strokeColor=#000000;fontColor=#000000;" parent="1" source="upload-s3-tall" target="success-message-tall" edge="1">
                    <mxGeometry width="50" height="50" relative="1" as="geometry">
                        <mxPoint x="1400" y="100" as="sourcePoint"/>
                        <mxPoint x="1480" y="100" as="targetPoint"/>
                    </mxGeometry>
                </mxCell>
                <mxCell id="conn9" value="" style="endArrow=classic;html=1;rounded=0;strokeWidth=2;strokeColor=#000000;fontColor=#000000;" parent="1" source="upload-s3-original" target="lambda-invoke" edge="1">
                    <mxGeometry width="50" height="50" relative="1" as="geometry">
                        <mxPoint x="1400" y="220" as="sourcePoint"/>
                        <mxPoint x="1480" y="220" as="targetPoint"/>
                    </mxGeometry>
                </mxCell>
                <mxCell id="conn10" value="" style="endArrow=classic;html=1;rounded=0;strokeWidth=2;strokeColor=#000000;fontColor=#000000;" parent="1" source="lambda-invoke" target="success-message-wide" edge="1">
                    <mxGeometry width="50" height="50" relative="1" as="geometry">
                        <mxPoint x="1640" y="220" as="sourcePoint"/>
                        <mxPoint x="1720" y="220" as="targetPoint"/>
                    </mxGeometry>
                </mxCell>
                <mxCell id="conn12" value="エラーの場合" style="endArrow=classic;html=1;rounded=0;strokeWidth=2;strokeColor=#000000;fontColor=#000000;labelBackgroundColor=#ffffff;labelBorderColor=#000000;" parent="1" source="aspect-ratio-check" target="error-message" edge="1">
                    <mxGeometry width="50" height="50" relative="1" as="geometry">
                        <mxPoint x="1080" y="180" as="sourcePoint"/>
                        <mxPoint x="1240" y="300" as="targetPoint"/>
                    </mxGeometry>
                </mxCell>
                <mxCell id="description-box" value="&lt;b&gt;ワークフロー概要&lt;/b&gt;&lt;br&gt;1. Slackから画像を取得&lt;br&gt;2. アスペクト比を分析&lt;br&gt;3. 縦長：直接S3保存&lt;br&gt;4. 横長：元画像保存 + Lambda処理（S3保存含む）&lt;br&gt;5. 結果をSlackに通知" style="text;html=1;strokeColor=#000000;fillColor=#ffffff;align=left;verticalAlign=top;whiteSpace=wrap;rounded=1;fontSize=12;fontColor=#000000;" parent="1" vertex="1">
                    <mxGeometry x="40" y="400" width="400" height="120" as="geometry"/>
                </mxCell>
            </root>
        </mxGraphModel>
    </diagram>
</mxfile>